<svg xmlns="http://www.w3.org/2000/svg" viewBox="0 0 64.71 27.45"><defs><style>.cls-1{fill:#fff;}.cls-2{fill:gray;}</style></defs><title>Asset 80</title><g id="Layer_2" data-name="Layer 2"><g id="diagram"><path class="cls-1" d="M64.71,24.59a13.56,13.56,0,0,1-.21,2.3.67.67,0,0,1-.66.56H.67a.67.67,0,0,1-.52-.25A.65.65,0,0,1,0,26.63,9.79,9.79,0,0,1,9.26,19a10.72,10.72,0,0,1,14-7.65,16.1,16.1,0,0,1,30.76.06A13.53,13.53,0,0,1,64.71,24.59Z"/><path class="cls-2" d="M54.05,11.37a16.1,16.1,0,0,0-30.76-.06A10.72,10.72,0,0,0,9.26,19,9.79,9.79,0,0,0,0,26.63a.65.65,0,0,0,.13.57.67.67,0,0,0,.52.25H63.84a.67.67,0,0,0,.66-.56A13.44,13.44,0,0,0,54.05,11.37Zm9.22,14.74H1.54a8.49,8.49,0,0,1,8.13-5.82h.11a.65.65,0,0,0,.68-.55,9.36,9.36,0,0,1,12.77-7,7.36,7.36,0,0,1,3.1,2.74.5.5,0,0,0,.52.23.49.49,0,0,0,.17-.06.48.48,0,0,0,.17-.68,8.05,8.05,0,0,0-2.77-2.72,14.74,14.74,0,0,1,28.25-.74,7.39,7.39,0,0,0-3.08.65.5.5,0,0,0-.27.65.51.51,0,0,0,.66.27,7.77,7.77,0,0,1,3.78-.38,12.18,12.18,0,0,1,9.61,11.9A11.51,11.51,0,0,1,63.27,26.11Z"/></g></g></svg>
