<svg xmlns="http://www.w3.org/2000/svg" viewBox="0 0 57.54 42.2"><defs><style>.cls-1{fill:#fff;}.cls-2{fill:gray;}</style></defs><title>Asset 84</title><g id="Layer_2" data-name="Layer 2"><g id="diagram"><path class="cls-1" d="M57.54,39.27c0,1.94-.74,2.93-2.21,2.93H2.21C.75,42.2,0,41.21,0,39.27a.75.75,0,0,1,.18-.48l6.09-7a3,3,0,0,1,1-1.93,2.89,2.89,0,0,1-1-2.2V2.94A2.94,2.94,0,0,1,9.19,0H48.81a2.94,2.94,0,0,1,2.94,2.94V27.62a2.89,2.89,0,0,1-1,2.2,3,3,0,0,1,1,1.95l5.64,7A.76.76,0,0,1,57.54,39.27Z"/><path class="cls-2" d="M57.38,38.81l-5.64-7a3,3,0,0,0-1-1.95,2.89,2.89,0,0,0,1-2.2V2.94A2.94,2.94,0,0,0,48.81,0H9.19A2.94,2.94,0,0,0,6.26,2.94V27.62a2.89,2.89,0,0,0,1,2.2,3,3,0,0,0-1,1.93l-6.09,7a.75.75,0,0,0-.18.48c0,1.94.75,2.93,2.21,2.93H55.33c1.47,0,2.21-1,2.21-2.93A.76.76,0,0,0,57.38,38.81ZM7.71,27.62V2.94A1.49,1.49,0,0,1,9.19,1.45H48.81A1.49,1.49,0,0,1,50.3,2.94V27.62a1.49,1.49,0,0,1-1.49,1.48H9.19A1.48,1.48,0,0,1,7.71,27.62ZM55.33,40.75H2.21c-.31,0-.7,0-.75-1.22l6.07-7A.69.69,0,0,0,7.71,32a1.49,1.49,0,0,1,1.48-1.49H48.81A1.49,1.49,0,0,1,50.3,32a.69.69,0,0,0,.16.45l5.63,7C56,40.75,55.65,40.75,55.33,40.75ZM46.87,3.13H30.13a.77.77,0,0,0,0-.15,1.14,1.14,0,0,0-2.28,0s0,.1,0,.15H11.15A1.88,1.88,0,0,0,9.34,5.06V25.77a1.88,1.88,0,0,0,1.81,1.94H46.87a1.88,1.88,0,0,0,1.81-1.94V5.06A1.88,1.88,0,0,0,46.87,3.13Zm.72,22.64a.79.79,0,0,1-.72.85H11.15a.8.8,0,0,1-.73-.85V5.06a.8.8,0,0,1,.73-.85H46.87a.79.79,0,0,1,.72.85ZM8.86,32.37A.37.37,0,0,1,9.22,32H48.86a.37.37,0,0,1,.36.37.36.36,0,0,1-.36.36H9.22A.36.36,0,0,1,8.86,32.37Zm-1.3,2.44a.37.37,0,0,1,.37-.36H50a.36.36,0,0,1,.36.36.37.37,0,0,1-.36.37h-42A.38.38,0,0,1,7.56,34.81ZM5.8,36.9H51.37a.36.36,0,0,1,0,.72H5.8a.36.36,0,0,1,0-.72ZM42.88,9.48a.36.36,0,0,1-.1.5L32.35,17a.42.42,0,0,1-.21.06.38.38,0,0,1-.3-.16.36.36,0,0,1,.1-.5l10.43-7A.37.37,0,0,1,42.88,9.48Zm-5.27,6.25a.36.36,0,0,1-.1.5l-8.26,5.58a.44.44,0,0,1-.21.07.38.38,0,0,1-.3-.16.37.37,0,0,1,.1-.51l8.27-5.58A.36.36,0,0,1,37.61,15.73Z"/></g></g></svg>
