<svg xmlns="http://www.w3.org/2000/svg" viewBox="0 0 58.37 44.72"><title>Edge</title><g id="Layer_2" data-name="Layer 2"><g id="diagram"><path d="M55.62,0h-49A2.75,2.75,0,0,0,3.83,2.75V13.92H2.75A2.75,2.75,0,0,0,0,16.67V42a2.75,2.75,0,0,0,2.75,2.75H19.44a2.06,2.06,0,0,0,.26,0l.13,0h31.3A1.76,1.76,0,0,0,52.88,43V35.22h2.74a2.75,2.75,0,0,0,2.75-2.75V2.75A2.75,2.75,0,0,0,55.62,0ZM24.54,36.5a7.51,7.51,0,0,1-2.35,2.94V35.22H25Zm15.37,2.94a7.56,7.56,0,0,1-2.34-2.94l-.47-1.28h2.81Z" fill="#fff"/><path d="M12.6,41.17h-3a.5.5,0,0,0-.5.5.5.5,0,0,0,.5.5h3a.51.51,0,0,0,.5-.5A.5.5,0,0,0,12.6,41.17Zm5.84-24H3.75a.51.51,0,0,0-.5.5V39.61a.5.5,0,0,0,.5.5H18.44a.5.5,0,0,0,.5-.5V17.67A.5.5,0,0,0,18.44,17.17Zm-.5,21.94H4.25V18.17H17.94ZM45.39,8.84l-13,8.76a.51.51,0,0,0-.14.7.5.5,0,0,0,.41.22.47.47,0,0,0,.28-.09L46,9.67A.49.49,0,0,0,46.08,9,.5.5,0,0,0,45.39,8.84ZM55.62,0h-49A2.75,2.75,0,0,0,3.83,2.75V13.92H2.75A2.76,2.76,0,0,0,0,16.67V42a2.75,2.75,0,0,0,2.75,2.75H19.44l.26,0,.13,0h31.3A1.75,1.75,0,0,0,52.88,43V35.23h2.74a2.75,2.75,0,0,0,2.75-2.75V2.75A2.75,2.75,0,0,0,55.62,0ZM20.69,42a1.25,1.25,0,0,1-1.25,1.25H2.75A1.25,1.25,0,0,1,1.5,42V16.67a1.25,1.25,0,0,1,1.25-1.25H19.44a1.25,1.25,0,0,1,1.25,1.25Zm1.19,1.25A2.72,2.72,0,0,0,22.19,42v-.63A10.25,10.25,0,0,0,25.94,37l.67-1.79H35.5L36.16,37a10.25,10.25,0,0,0,3.75,4.32V43a1.9,1.9,0,0,0,0,.25Zm.31-9.49V32H39.91v1.75Zm17.72,1.5v4.21a7.48,7.48,0,0,1-2.34-2.94l-.47-1.27Zm-14.9,0-.47,1.27a7.51,7.51,0,0,1-2.35,2.94V35.23ZM51.38,43a.25.25,0,0,1-.25.25H41.66a.25.25,0,0,1-.25-.25V40h10Zm0-4h-10V26.81h10Zm0-13.16h-10v-2a.26.26,0,0,1,.25-.25h9.47a.26.26,0,0,1,.25.25Zm-.25-3.73H41.66a1.76,1.76,0,0,0-1.75,1.75V31H22.19V16.67a2.75,2.75,0,0,0-2.75-2.75H8.08V4.25h46V31H52.88V23.83A1.76,1.76,0,0,0,51.13,22.08Zm5.74,10.4a1.25,1.25,0,0,1-1.25,1.25H52.88V32h1.74a.5.5,0,0,0,.5-.5V3.75a.5.5,0,0,0-.5-.5h-47a.5.5,0,0,0-.5.5V13.92H5.33V2.75A1.25,1.25,0,0,1,6.58,1.5h49a1.25,1.25,0,0,1,1.25,1.25Zm-10-8.28h-1a.5.5,0,0,0-.5.5.5.5,0,0,0,.5.5h1a.51.51,0,0,0,.5-.5A.5.5,0,0,0,46.9,24.2Zm-8.1-7.54-10.33,7a.5.5,0,0,0-.13.7.49.49,0,0,0,.41.22.47.47,0,0,0,.28-.09l10.33-7a.51.51,0,0,0,.14-.7A.5.5,0,0,0,38.8,16.66ZM44.9,42.1h3a.51.51,0,0,0,.5-.5.5.5,0,0,0-.5-.5h-3a.5.5,0,0,0-.5.5A.5.5,0,0,0,44.9,42.1Z" fill="gray"/></g></g></svg>
