<svg xmlns="http://www.w3.org/2000/svg" viewBox="0 0 32.2 56.59"><defs><style>.cls-1{fill:#fff;}.cls-2{fill:gray;}</style></defs><title>Asset 82</title><g id="Layer_2" data-name="Layer 2"><g id="diagram"><rect class="cls-1" width="32.2" height="56.59" rx="2.96"/><path class="cls-2" d="M25.76,17.28,14.42,24.91a.39.39,0,0,0,.22.72.47.47,0,0,0,.22-.07l11.35-7.62a.4.4,0,0,0-.45-.66"/><path class="cls-2" d="M20,24.08l-9,6.07a.39.39,0,0,0-.1.55.37.37,0,0,0,.32.18.48.48,0,0,0,.23-.07l9-6.07a.39.39,0,0,0,.11-.55.4.4,0,0,0-.55-.11"/><path class="cls-2" d="M29.24,0H3A3,3,0,0,0,0,3V53.63a3,3,0,0,0,3,3H29.24a3,3,0,0,0,3-3V3a3,3,0,0,0-3-3M3,1.52H29.24A1.45,1.45,0,0,1,30.68,3V9.43H1.52V3A1.45,1.45,0,0,1,3,1.52M30.68,46.39H1.52V10.2H30.68Zm-1.44,8.68H3a1.45,1.45,0,0,1-1.44-1.44V47.16H30.68v6.47a1.45,1.45,0,0,1-1.44,1.44"/><path class="cls-2" d="M13.52,6h5.16a.56.56,0,0,0,.57-.57.57.57,0,0,0-.57-.57H13.52a.57.57,0,0,0-.57.57.56.56,0,0,0,.57.57"/><path class="cls-2" d="M10.94,6.22a.75.75,0,0,0,.76-.76.73.73,0,0,0-.22-.53.77.77,0,0,0-1.07,0,.74.74,0,0,0,0,1.07.73.73,0,0,0,.53.22"/><path class="cls-2" d="M17.58,48.29h-3a2,2,0,0,0-2,2v1.45a2,2,0,0,0,2,2h3a2,2,0,0,0,2-2V50.3a2,2,0,0,0-2-2m.86,3.46a.86.86,0,0,1-.86.86h-3a.86.86,0,0,1-.86-.86V50.3a.85.85,0,0,1,.86-.86h3a.85.85,0,0,1,.86.86Z"/></g></g></svg>
