<svg xmlns="http://www.w3.org/2000/svg" viewBox="0 0 52.09 52.09"><defs><style>.cls-1{fill:#fff;}.cls-2{fill:gray;}</style></defs><title>Asset 76</title><g id="Layer_2" data-name="Layer 2"><g id="diagram"><path class="cls-1" d="M47.72,13.1v4.4a.64.64,0,0,1,.27-.07h3.54a.55.55,0,0,1,.56.55.56.56,0,0,1-.56.56H48a.52.52,0,0,1-.27-.07v4.4A.64.64,0,0,1,48,22.8h3.54a.56.56,0,1,1,0,1.11H48a.52.52,0,0,1-.27-.07v4.4a.64.64,0,0,1,.27-.07h3.54a.56.56,0,1,1,0,1.12H48a.53.53,0,0,1-.27-.08v4.4a.64.64,0,0,1,.27-.07h3.54a.56.56,0,1,1,0,1.11H48a.53.53,0,0,1-.27-.08V39a.64.64,0,0,1,.28-.07h3.53a.56.56,0,0,1,.56.56.55.55,0,0,1-.56.55H48a.64.64,0,0,1-.27-.07v4.4a.54.54,0,0,1,.28-.08l3.54,0a.56.56,0,1,1,0,1.11H48a.64.64,0,0,1-.27-.07v1.76a.74.74,0,0,1-.74.74H45.39a.88.88,0,0,1,0,.16v3.54a.56.56,0,0,1-.55.56h0a.57.57,0,0,1-.55-.56V48a.41.41,0,0,1,0-.16H40A.78.78,0,0,1,40,48v3.54a.56.56,0,0,1-.55.56h0a.56.56,0,0,1-.55-.56V48a.78.78,0,0,1,0-.16H34.64a.41.41,0,0,1,0,.16v3.54a.56.56,0,1,1-1.11,0V48a.41.41,0,0,1,0-.16H29.27a.78.78,0,0,1,0,.16v3.54a.56.56,0,1,1-1.11,0V48a.78.78,0,0,1,0-.16H23.89a.41.41,0,0,1,0,.16v3.54a.56.56,0,1,1-1.11,0V48a.41.41,0,0,1,0-.16H18.52a.78.78,0,0,1,0,.16v3.54a.56.56,0,0,1-.56.56.55.55,0,0,1-.55-.56V48a.41.41,0,0,1,0-.16H13.14a.41.41,0,0,1,0,.16v3.54a.56.56,0,1,1-1.12,0V48a.78.78,0,0,1,0-.16H7.77a.41.41,0,0,1,0,.16l0,3.54a.57.57,0,0,1-.56.56.56.56,0,0,1-.56-.56V48a.45.45,0,0,1,0-.16H4.84a.74.74,0,0,1-.74-.74V45.41H.56A.56.56,0,0,1,0,44.84a.57.57,0,0,1,.56-.56l3.54,0V40H.56a.56.56,0,0,1,0-1.12H4.1V34.66H.56a.56.56,0,1,1,0-1.12H4.1V29.29H.56a.56.56,0,1,1,0-1.12H4.1V23.91H.56a.56.56,0,1,1,0-1.11H4.1V18.54H.56a.56.56,0,1,1,0-1.11H4.1V13.16H.56a.56.56,0,1,1,0-1.11H4.1V7.79H.56a.56.56,0,1,1,0-1.11H4.1V5a.74.74,0,0,1,.74-.74H6.7s0-.08,0-.11V.56A.56.56,0,0,1,7.24,0a.55.55,0,0,1,.55.55l0,3.54a.5.5,0,0,1,0,.12h4.29a.52.52,0,0,1,0-.11V.56A.55.55,0,0,1,12.61,0a.56.56,0,0,1,.56.55V4.09s0,.08,0,.12h4.28a.49.49,0,0,1,0-.12V.56a.56.56,0,1,1,1.11,0V4.09s0,.08,0,.12h4.28a.49.49,0,0,1,0-.12V.54A.55.55,0,0,1,23.36,0a.56.56,0,0,1,.56.56V4.09a.49.49,0,0,1,0,.12h4.28a.49.49,0,0,1,0-.12V.56A.56.56,0,0,1,28.73,0h0a.56.56,0,0,1,.55.56V4.09a.49.49,0,0,1,0,.12h4.28a.49.49,0,0,1,0-.12V.56A.56.56,0,0,1,34.11,0a.54.54,0,0,1,.55.56V4.09a.49.49,0,0,1,0,.12h4.28a.49.49,0,0,1,0-.12V.55A.56.56,0,1,1,40,.56V4.1a.45.45,0,0,1,0,.11H44.3a.49.49,0,0,1,0-.12V.55A.56.56,0,0,1,44.86,0a.55.55,0,0,1,.55.56V4.1a.45.45,0,0,1,0,.11H47a.74.74,0,0,1,.74.74V6.76A.52.52,0,0,1,48,6.69h3.54a.55.55,0,0,1,.56.55.56.56,0,0,1-.55.56H48a.52.52,0,0,1-.27-.07v4.4a.64.64,0,0,1,.27-.07h3.54a.56.56,0,1,1,0,1.11H48A.52.52,0,0,1,47.72,13.1Z"/><path class="cls-2" d="M48,13.17h3.54a.56.56,0,1,0,0-1.11H48a.64.64,0,0,0-.27.07V7.73A.52.52,0,0,0,48,7.8h3.55a.56.56,0,0,0,.55-.56.55.55,0,0,0-.56-.55H48a.52.52,0,0,0-.27.07V5A.74.74,0,0,0,47,4.21H45.39a.45.45,0,0,0,0-.11V.56A.55.55,0,0,0,44.86,0h0a.56.56,0,0,0-.56.55V4.09a.49.49,0,0,0,0,.12H40a.45.45,0,0,0,0-.11V.56A.56.56,0,0,0,39.48,0h0a.55.55,0,0,0-.55.55V4.09a.49.49,0,0,0,0,.12H34.65a.49.49,0,0,0,0-.12V.56A.54.54,0,0,0,34.11,0h0a.56.56,0,0,0-.56.56V4.09a.49.49,0,0,0,0,.12H29.28a.49.49,0,0,0,0-.12V.56A.56.56,0,0,0,28.74,0h0a.56.56,0,0,0-.55.56V4.09a.49.49,0,0,0,0,.12H23.91a.49.49,0,0,0,0-.12V.56A.56.56,0,0,0,23.36,0h0a.54.54,0,0,0-.55.56V4.09a.49.49,0,0,0,0,.12H18.54s0-.08,0-.12V.56A.56.56,0,0,0,18,0h0a.56.56,0,0,0-.56.56V4.09a.49.49,0,0,0,0,.12H13.17s0-.08,0-.12V.55A.56.56,0,0,0,12.61,0h0a.55.55,0,0,0-.55.56V4.1a.52.52,0,0,0,0,.11H7.79a.5.5,0,0,0,0-.12l0-3.54A.55.55,0,0,0,7.24,0h0a.56.56,0,0,0-.56.56V4.1s0,.07,0,.11H4.84A.74.74,0,0,0,4.1,5V6.68H.56a.56.56,0,1,0,0,1.11H4.1v4.26H.56a.56.56,0,1,0,0,1.11H4.1v4.27H.56a.56.56,0,1,0,0,1.11H4.1V22.8H.56a.56.56,0,1,0,0,1.11H4.1v4.26H.56a.56.56,0,1,0,0,1.12H4.1v4.26H.56a.56.56,0,1,0,0,1.12H4.1v4.26H.56A.56.56,0,0,0,.56,40H4.1V44.3h0l-3.54,0h0a.57.57,0,0,0-.56.56.56.56,0,0,0,.56.56H4.1v1.68a.74.74,0,0,0,.74.74H6.71a.45.45,0,0,0,0,.16v3.54a.56.56,0,0,0,.56.56h0a.57.57,0,0,0,.56-.56l0-3.54a.41.41,0,0,0,0-.16h4.31a.78.78,0,0,0,0,.16v3.54a.56.56,0,0,0,.56.56h0a.56.56,0,0,0,.56-.56V48a.41.41,0,0,0,0-.16h4.32a.41.41,0,0,0,0,.16v3.54a.55.55,0,0,0,.55.56h0a.56.56,0,0,0,.56-.56V48a.78.78,0,0,0,0-.16h4.31a.41.41,0,0,0,0,.16v3.54a.56.56,0,0,0,.55.56h0a.56.56,0,0,0,.56-.56V48a.41.41,0,0,0,0-.16H28.2a.78.78,0,0,0,0,.16v3.54a.56.56,0,0,0,.55.56h0a.56.56,0,0,0,.56-.56V48a.78.78,0,0,0,0-.16h4.31a.41.41,0,0,0,0,.16v3.54a.56.56,0,0,0,.55.56h0a.56.56,0,0,0,.56-.56V48a.41.41,0,0,0,0-.16H39a.78.78,0,0,0,0,.16v3.54a.56.56,0,0,0,.55.56h0a.56.56,0,0,0,.55-.56V48a.78.78,0,0,0,0-.16h4.31a.41.41,0,0,0,0,.16v3.54a.57.57,0,0,0,.55.56h0a.56.56,0,0,0,.55-.56V48a.88.88,0,0,0,0-.16H47a.74.74,0,0,0,.74-.74V45.33a.64.64,0,0,0,.27.07h3.54a.56.56,0,1,0,0-1.11l-3.54,0h0a.54.54,0,0,0-.28.08V40A.64.64,0,0,0,48,40h3.54a.55.55,0,0,0,.56-.55.56.56,0,0,0-.56-.56H48a.64.64,0,0,0-.28.07v-4.4a.53.53,0,0,0,.27.08h3.54a.56.56,0,1,0,0-1.11H48a.64.64,0,0,0-.27.07v-4.4a.53.53,0,0,0,.27.08h3.54a.56.56,0,1,0,0-1.12H48a.64.64,0,0,0-.27.07v-4.4a.52.52,0,0,0,.27.07h3.54a.56.56,0,1,0,0-1.11H48a.64.64,0,0,0-.27.07v-4.4a.52.52,0,0,0,.27.07h3.54a.56.56,0,0,0,.56-.56.55.55,0,0,0-.56-.55H48a.64.64,0,0,0-.27.07V13.1A.52.52,0,0,0,48,13.17ZM46.24,46.34H5.58V5.69H46.24Z"/><path class="cls-2" d="M20.74,27.87a.37.37,0,0,0-.37.37v9.49H17.61a.38.38,0,0,0,0,.75h3.13a.38.38,0,0,0,.37-.38V28.24A.38.38,0,0,0,20.74,27.87Z"/><path class="cls-2" d="M10.29,41.39H23.45a.55.55,0,0,0,.55-.55V12.06a.55.55,0,0,0-.55-.55H10.29a.56.56,0,0,0-.56.55V40.84A.56.56,0,0,0,10.29,41.39Zm.55-28.77H22.89V40.28h-12Z"/><path class="cls-2" d="M34.48,14.47H31.35a.38.38,0,0,0-.37.37v5a.37.37,0,1,0,.74,0V15.22h2.76a.38.38,0,0,0,0-.75Z"/><path class="cls-2" d="M39.09,27.87a.38.38,0,0,0-.38.37v9.49H36a.38.38,0,0,0,0,.75h3.13a.38.38,0,0,0,.37-.38V28.24A.38.38,0,0,0,39.09,27.87Z"/><path class="cls-2" d="M28.64,41.39H41.8a.55.55,0,0,0,.55-.55V12.06a.55.55,0,0,0-.55-.55H28.64a.56.56,0,0,0-.56.55V40.84A.56.56,0,0,0,28.64,41.39Zm.55-28.77H41.24V40.28h-12Z"/></g></g></svg>
