<svg xmlns="http://www.w3.org/2000/svg" viewBox="0 0 57.61 23.04"><title>Asset 90</title><g id="Layer_2" data-name="Layer 2"><g id="diagram"><path d="M57.6,5.86V22A1.25,1.25,0,0,1,56.42,23H1.19A1.26,1.26,0,0,1,0,22V5.86c0-.09.15-.18.17-.26A1,1,0,0,1,.81,4.46L11,.12A1.05,1.05,0,0,1,11.35,0H47.59A1.18,1.18,0,0,1,48,.14L56.9,4.5a1,1,0,0,1,.54,1.11C57.46,5.69,57.6,5.77,57.6,5.86Z" fill="#fff"/><path d="M57.44,5.61A1,1,0,0,0,56.9,4.5L48,.14A1.18,1.18,0,0,0,47.59,0H11.35A1.05,1.05,0,0,0,11,.12L.82,4.46A1,1,0,0,0,.17,5.6c0,.08-.16.17-.16.26V22A1.25,1.25,0,0,0,1.19,23H56.42A1.26,1.26,0,0,0,57.61,22V5.86C57.61,5.77,57.46,5.69,57.44,5.61ZM11.54,1.92H47.37L53.28,4.8H4.74Zm44.15,19.2H1.93V6.72H55.69Z" fill="gray"/><path d="M7,15.32A1.32,1.32,0,1,0,5.68,14,1.33,1.33,0,0,0,7,15.32Z" fill="gray"/><circle cx="11.69" cy="14" r="1.32" fill="gray"/><path d="M52.81,17.76a.48.48,0,0,1-.49.48H49.45a.47.47,0,0,1-.48-.48V10.08a.48.48,0,0,1,.48-.48h2.87a.49.49,0,0,1,.49.48Zm-2.88-.48h1.92V10.56H49.93Z" fill="gray"/><path d="M47.05,17.76a.48.48,0,0,1-.48.48H43.69a.47.47,0,0,1-.48-.48V10.08a.48.48,0,0,1,.48-.48h2.88a.49.49,0,0,1,.48.48Zm-2.88-.48h1.92V10.56H44.17Z" fill="gray"/></g></g></svg>
