<svg xmlns="http://www.w3.org/2000/svg" viewBox="0 0 57.87 30.6"><title>Asset 88</title><g id="Layer_2" data-name="Layer 2"><g id="diagram"><path d="M57.87,6.69V23.91c0,4.39-14.55,6.69-28.93,6.69S0,28.3,0,23.91V6.69C0,2.3,14.56,0,28.94,0S57.87,2.3,57.87,6.69Z" fill="#fff"/><path d="M13.25,12h-.06a49.63,49.63,0,0,1-7.8-1.65.38.38,0,0,1-.25-.47.36.36,0,0,1,.47-.24,49.55,49.55,0,0,0,7.69,1.61.38.38,0,0,1,.32.43A.38.38,0,0,1,13.25,12Z" fill="gray"/><path d="M28.94,13.18c-3.15,0-6.24-.1-9.19-.32a.56.56,0,0,1-.52-.6.57.57,0,0,1,.6-.52c2.93.21,6,.32,9.11.32,9.6,0,18.41-1,23.57-2.71a.56.56,0,1,1,.35,1.07C47.6,12.15,38.65,13.18,28.94,13.18Z" fill="gray"/><path d="M28.94,30.6C14.56,30.6,0,28.3,0,23.91V6.69C0,2.3,14.56,0,28.94,0S57.87,2.3,57.87,6.69V23.91C57.87,28.3,43.32,30.6,28.94,30.6Zm0-29.1c-17,0-27.43,3-27.43,5.19V23.91c0,2.17,10.43,5.19,27.43,5.19s27.43-3,27.43-5.19V6.69C56.37,4.52,45.94,1.5,28.94,1.5Z" fill="gray"/></g></g></svg>
