<svg xmlns="http://www.w3.org/2000/svg" viewBox="0 0 37.43 57.87"><defs><style>.cls-1{fill:#fff;}.cls-2{fill:gray;}</style></defs><title>Asset 75</title><g id="Layer_2" data-name="Layer 2"><g id="diagram"><path class="cls-1" d="M27.76,9a9,9,0,1,1-9-9A9.06,9.06,0,0,1,27.76,9Z"/><path class="cls-1" d="M37.43,42.08c0,4.55-2.55,6.8-5.63,9.06l-.76.55.19,3.23-.54.42c-1.21.94-4.37,2.52-12,2.52-7.84,0-10.95-1.65-12.11-2.63l-.48-.42.19-3.17-.74-.55C2.64,48.94,0,46.62,0,42.08v0l.64-8c.41-5,1.16-14.19,13.75-14.19h8.66c12.35,0,13.26,9.22,13.74,14.18l.53,6.77h.1Z"/><path class="cls-2" d="M18.72,57.87c-7.84,0-10.95-1.65-12.11-2.63l-.48-.42.19-3.17-.74-.55C2.64,48.94,0,46.63,0,42.09V42l.64-8c.41-5,1.16-14.2,13.75-14.2h8.66c12.35,0,13.26,9.22,13.74,14.18l.53,6.78h.1v1.3c0,4.55-2.55,6.79-5.63,9L31,51.7l.19,3.23-.54.42C29.48,56.29,26.32,57.87,18.72,57.87Zm0-39.79a9,9,0,1,1,9-9A9.05,9.05,0,0,1,18.72,18.08ZM11,9A7.74,7.74,0,1,0,18.72,1.3,7.75,7.75,0,0,0,11,9ZM36.12,42.09l-.62-8c-.56-5.62-1.71-13-12.45-13H14.39c-10.74,0-12,7-12.45,13l-.63,8c0,3.83,2,5.75,5,8L7.59,32.86a.57.57,0,0,1,.57-.58.58.58,0,0,1,.57.58L7.48,54.08a.78.78,0,0,1,0,.16c.82.7,3.57,2.32,11.26,2.32,7.41,0,10.23-1.5,11.17-2.24L28.64,32.86a.58.58,0,0,1,.57-.58.57.57,0,0,1,.57.58L31,50.09c3-2.22,5.1-4.15,5.1-8Z"/><path class="cls-2" d="M26.07,30.73H20.43a.51.51,0,0,0-.51.5v5a.51.51,0,0,0,.32.47l2.82,1.14a.41.41,0,0,0,.19,0,.43.43,0,0,0,.19,0l2.82-1.14a.51.51,0,0,0,.32-.47v-5A.51.51,0,0,0,26.07,30.73Zm-.5,5.13-2.32.94-2.32-.94V31.74h4.64Z"/></g></g></svg>
