<svg xmlns="http://www.w3.org/2000/svg" viewBox="0 0 57.78 27.54"><title>Asset 89</title><g id="Layer_2" data-name="Layer 2"><g id="diagram"><path d="M11,2a.69.69,0,0,0,.24,0l1-.43a2.6,2.6,0,0,1,.47-.16A.63.63,0,0,0,12.38.14a3.65,3.65,0,0,0-.66.22l-1,.43A.63.63,0,0,0,11,2Zm4.11-.74h1.7A.63.63,0,0,0,17.4.64.63.63,0,0,0,16.77,0h-1.7a.63.63,0,0,0-.63.64A.63.63,0,0,0,15.07,1.27Zm8.49,0h1.7a.64.64,0,1,0,0-1.27h-1.7a.63.63,0,0,0-.63.64A.63.63,0,0,0,23.56,1.27Zm-4.24,0H21a.63.63,0,0,0,.63-.63A.63.63,0,0,0,21,0h-1.7a.64.64,0,1,0,0,1.27ZM4.2,7.56a.84.84,0,0,0-.47,1,.79.79,0,0,0,0,.22V23a.85.85,0,0,0,.85.85H53.25A.85.85,0,0,0,54.1,23V8.78a.79.79,0,0,0-.05-.22.83.83,0,0,0-.43-1L45.84,3.77a.84.84,0,0,0-.37-.09h-32a1,1,0,0,0-.33.07ZM.64,17a.64.64,0,0,0,.63-.64v-1.7a.63.63,0,0,0-.63-.63.63.63,0,0,0-.64.63v1.7A.64.64,0,0,0,.64,17Zm0-4.25a.63.63,0,0,0,.63-.63v-1.7a.64.64,0,1,0-1.27,0v1.7A.63.63,0,0,0,.64,12.78ZM7.05,3.67a.59.59,0,0,0,.25,0L8.86,3a.64.64,0,0,0,.33-.84.63.63,0,0,0-.83-.33L6.8,2.45a.65.65,0,0,0-.34.84A.64.64,0,0,0,7.05,3.67ZM3.14,5.33a.56.56,0,0,0,.25,0L5,4.62a.64.64,0,0,0,.34-.83.64.64,0,0,0-.84-.34l-1.56.67A.63.63,0,0,0,2.56,5,.62.62,0,0,0,3.14,5.33ZM40.55,1.27h1.7a.63.63,0,0,0,.63-.63A.63.63,0,0,0,42.25,0h-1.7a.64.64,0,1,0,0,1.27Zm11.78,3L53.86,5a.67.67,0,0,0,.28.06.63.63,0,0,0,.28-1.2l-1.53-.75a.64.64,0,1,0-.56,1.14ZM48.52,2.39,50,3.14a.72.72,0,0,0,.28.07.64.64,0,0,0,.57-.36A.62.62,0,0,0,50.6,2l-1.52-.75a.64.64,0,0,0-.85.29A.62.62,0,0,0,48.52,2.39ZM44.79,1.27h.68a3.54,3.54,0,0,1,.85.11.45.45,0,0,0,.16,0,.63.63,0,0,0,.61-.47.62.62,0,0,0-.44-.78A4.36,4.36,0,0,0,45.47,0h-.68a.63.63,0,0,0-.63.64A.63.63,0,0,0,44.79,1.27ZM56.39,7.5A.62.62,0,0,0,57,8a.41.41,0,0,0,.16,0,.63.63,0,0,0,.46-.77,4.63,4.63,0,0,0-.9-1.75.63.63,0,0,0-.89-.08.65.65,0,0,0-.09.9A3.25,3.25,0,0,1,56.39,7.5ZM.64,21.27a.63.63,0,0,0,.63-.63v-1.7a.64.64,0,1,0-1.27,0v1.7A.63.63,0,0,0,.64,21.27Zm27.17-20h1.7a.63.63,0,0,0,.63-.63A.63.63,0,0,0,29.51,0h-1.7a.64.64,0,1,0,0,1.27Zm4.25,0h1.69a.64.64,0,1,0,0-1.27H32.06a.64.64,0,1,0,0,1.27Zm4.24,0H38A.64.64,0,1,0,38,0H36.3a.63.63,0,0,0-.63.64A.63.63,0,0,0,36.3,1.27Zm2.24,25h-1.7a.64.64,0,1,0,0,1.27h1.7a.64.64,0,0,0,0-1.27Zm8.49,0h-1.7a.64.64,0,0,0,0,1.27H47a.64.64,0,1,0,0-1.27Zm4.25,0h-1.7a.64.64,0,1,0,0,1.27h1.7a.64.64,0,0,0,0-1.27ZM55,25.73a3.13,3.13,0,0,1-1.31.5.64.64,0,0,0,.09,1.27h.09a4.44,4.44,0,0,0,1.83-.7.62.62,0,0,0,.18-.88A.64.64,0,0,0,55,25.73Zm-12.26.54H41.09a.64.64,0,1,0,0,1.27h1.69a.64.64,0,1,0,0-1.27Zm14.37-8.54a.64.64,0,0,0-.64.64v1.7a.64.64,0,0,0,.64.63.63.63,0,0,0,.63-.63v-1.7A.64.64,0,0,0,57.15,17.73Zm0-4.24a.64.64,0,0,0-.64.63v1.7a.64.64,0,0,0,.64.64.64.64,0,0,0,.63-.64v-1.7A.63.63,0,0,0,57.15,13.49ZM1.27,23.16a.62.62,0,0,0-.66-.61.64.64,0,0,0-.61.66,4.64,4.64,0,0,0,.51,1.9.66.66,0,0,0,.57.34.6.6,0,0,0,.29-.08.63.63,0,0,0,.27-.85A3.41,3.41,0,0,1,1.27,23.16ZM57.15,22a.64.64,0,0,0-.64.63V23a3.21,3.21,0,0,1-.18,1.07.64.64,0,0,0,.39.81.76.76,0,0,0,.21,0,.62.62,0,0,0,.6-.42A4.44,4.44,0,0,0,57.78,23v-.4A.63.63,0,0,0,57.15,22ZM34.29,26.27h-1.7a.64.64,0,0,0,0,1.27h1.7a.64.64,0,1,0,0-1.27Zm22.86-17a.64.64,0,0,0-.64.64v1.69a.64.64,0,0,0,.64.64.64.64,0,0,0,.63-.64V9.88A.63.63,0,0,0,57.15,9.24Zm-52.62,17A3.22,3.22,0,0,1,3.16,26a.64.64,0,1,0-.54,1.15,4.47,4.47,0,0,0,1.91.42h0a.62.62,0,0,0,.62-.63A.66.66,0,0,0,4.53,26.27Zm25.52,0h-1.7a.64.64,0,1,0,0,1.27h1.7a.64.64,0,0,0,0-1.27Zm-17,0h-1.7a.64.64,0,0,0,0,1.27h1.7a.64.64,0,1,0,0-1.27ZM1.55,5.76A.64.64,0,0,0,.68,6,4.69,4.69,0,0,0,0,7.83a.63.63,0,0,0,.56.7H.68A.64.64,0,0,0,1.31,8a3.28,3.28,0,0,1,.45-1.33A.64.64,0,0,0,1.55,5.76ZM8.81,26.27H7.12a.64.64,0,1,0,0,1.27H8.81a.64.64,0,1,0,0-1.27Zm8.5,0h-1.7a.64.64,0,1,0,0,1.27h1.7a.64.64,0,0,0,0-1.27Zm8.49,0H24.1a.64.64,0,0,0,0,1.27h1.7a.64.64,0,0,0,0-1.27Zm-4.25,0h-1.7a.64.64,0,0,0,0,1.27h1.7a.64.64,0,1,0,0-1.27Z" fill="#fff"/><path d="M3.73,8.56a.79.79,0,0,0,0,.22V23a.85.85,0,0,0,.85.85H53.25A.85.85,0,0,0,54.1,23V8.78a.79.79,0,0,0-.05-.22.83.83,0,0,0-.43-1L45.84,3.77a.84.84,0,0,0-.37-.09h-32a1,1,0,0,0-.33.07l-9,3.81A.84.84,0,0,0,3.73,8.56Zm9.93-3.18H45.27l5.22,2.55H7.66ZM5.38,9.83h47V22.16h-47Z" fill="gray"/><path d="M9.66,14.79A1.17,1.17,0,1,0,10.82,16,1.16,1.16,0,0,0,9.66,14.79Z" fill="gray"/><circle cx="13.79" cy="15.95" r="1.16" fill="gray"/><path d="M49.64,12.08H47.1a.42.42,0,0,0-.42.42v6.78a.42.42,0,0,0,.42.42h2.54a.42.42,0,0,0,.42-.42V12.5A.42.42,0,0,0,49.64,12.08Zm-.42,6.77h-1.7V12.92h1.7Z" fill="gray"/><path d="M44.56,12.08H42a.42.42,0,0,0-.42.42v6.78a.42.42,0,0,0,.42.42h2.54a.42.42,0,0,0,.42-.42V12.5A.42.42,0,0,0,44.56,12.08Zm-.42,6.77h-1.7V12.92h1.7Z" fill="gray"/><path d="M30.05,26.27h-1.7a.64.64,0,1,0,0,1.27h1.7a.64.64,0,0,0,0-1.27Z" fill="gray"/><path d="M34.29,26.27h-1.7a.64.64,0,0,0,0,1.27h1.7a.64.64,0,1,0,0-1.27Z" fill="gray"/><path d="M1.55,5.76A.64.64,0,0,0,.68,6,4.69,4.69,0,0,0,0,7.83a.63.63,0,0,0,.56.7H.68A.64.64,0,0,0,1.31,8a3.28,3.28,0,0,1,.45-1.33A.64.64,0,0,0,1.55,5.76Z" fill="gray"/><path d="M17.31,26.27h-1.7a.64.64,0,1,0,0,1.27h1.7a.64.64,0,0,0,0-1.27Z" fill="gray"/><path d="M8.81,26.27H7.12a.64.64,0,1,0,0,1.27H8.81a.64.64,0,1,0,0-1.27Z" fill="gray"/><path d="M4.53,26.27A3.22,3.22,0,0,1,3.16,26a.64.64,0,1,0-.54,1.15,4.47,4.47,0,0,0,1.91.42h0a.62.62,0,0,0,.62-.63A.66.66,0,0,0,4.53,26.27Z" fill="gray"/><path d="M38.54,26.27h-1.7a.64.64,0,1,0,0,1.27h1.7a.64.64,0,0,0,0-1.27Z" fill="gray"/><path d="M13.06,26.27h-1.7a.64.64,0,0,0,0,1.27h1.7a.64.64,0,1,0,0-1.27Z" fill="gray"/><path d="M21.55,26.27H19.86a.64.64,0,1,0,0,1.27h1.69a.64.64,0,1,0,0-1.27Z" fill="gray"/><path d="M57.15,22a.64.64,0,0,0-.64.63V23a3.21,3.21,0,0,1-.18,1.07.64.64,0,0,0,.39.81.76.76,0,0,0,.21,0,.62.62,0,0,0,.6-.42A4.44,4.44,0,0,0,57.78,23v-.4A.63.63,0,0,0,57.15,22Z" fill="gray"/><path d="M42.78,26.27H41.09a.64.64,0,1,0,0,1.27h1.69a.64.64,0,1,0,0-1.27Z" fill="gray"/><path d="M57.15,13.49a.64.64,0,0,0-.64.63v1.7a.64.64,0,0,0,.64.64.64.64,0,0,0,.63-.64v-1.7A.63.63,0,0,0,57.15,13.49Z" fill="gray"/><path d="M57.15,9.24a.64.64,0,0,0-.64.64v1.69a.64.64,0,0,0,.64.64.64.64,0,0,0,.63-.64V9.88A.63.63,0,0,0,57.15,9.24Z" fill="gray"/><path d="M57.15,17.73a.64.64,0,0,0-.64.64v1.7a.64.64,0,0,0,.64.63.63.63,0,0,0,.63-.63v-1.7A.64.64,0,0,0,57.15,17.73Z" fill="gray"/><path d="M47,26.27h-1.7a.64.64,0,0,0,0,1.27H47a.64.64,0,1,0,0-1.27Z" fill="gray"/><path d="M51.28,26.27h-1.7a.64.64,0,1,0,0,1.27h1.7a.64.64,0,0,0,0-1.27Z" fill="gray"/><path d="M55,25.73a3.13,3.13,0,0,1-1.31.5.64.64,0,0,0,.09,1.27h.09a4.44,4.44,0,0,0,1.83-.7.62.62,0,0,0,.18-.88A.64.64,0,0,0,55,25.73Z" fill="gray"/><path d="M25.8,26.27H24.1a.64.64,0,0,0,0,1.27h1.7a.64.64,0,0,0,0-1.27Z" fill="gray"/><path d="M32.06,1.27h1.69a.64.64,0,1,0,0-1.27H32.06a.64.64,0,1,0,0,1.27Z" fill="gray"/><path d="M40.55,1.27h1.7a.63.63,0,0,0,.63-.63A.63.63,0,0,0,42.25,0h-1.7a.64.64,0,1,0,0,1.27Z" fill="gray"/><path d="M23.56,1.27h1.7a.64.64,0,1,0,0-1.27h-1.7a.63.63,0,0,0-.63.64A.63.63,0,0,0,23.56,1.27Z" fill="gray"/><path d="M27.81,1.27h1.7a.63.63,0,0,0,.63-.63A.63.63,0,0,0,29.51,0h-1.7a.64.64,0,1,0,0,1.27Z" fill="gray"/><path d="M36.3,1.27H38A.64.64,0,1,0,38,0H36.3a.63.63,0,0,0-.63.64A.63.63,0,0,0,36.3,1.27Z" fill="gray"/><path d="M52.33,4.26,53.86,5a.67.67,0,0,0,.28.06.63.63,0,0,0,.28-1.2l-1.53-.75a.64.64,0,1,0-.56,1.14Z" fill="gray"/><path d="M44.79,1.27h.68a3.54,3.54,0,0,1,.85.11.45.45,0,0,0,.16,0,.63.63,0,0,0,.61-.47.62.62,0,0,0-.44-.78A4.36,4.36,0,0,0,45.47,0h-.68a.63.63,0,0,0-.63.64A.63.63,0,0,0,44.79,1.27Z" fill="gray"/><path d="M56.39,7.5A.62.62,0,0,0,57,8a.41.41,0,0,0,.16,0,.63.63,0,0,0,.46-.77,4.63,4.63,0,0,0-.9-1.75.63.63,0,0,0-.89-.08.65.65,0,0,0-.09.9A3.25,3.25,0,0,1,56.39,7.5Z" fill="gray"/><path d="M48.52,2.39,50,3.14a.72.72,0,0,0,.28.07.64.64,0,0,0,.57-.36A.62.62,0,0,0,50.6,2l-1.52-.75a.64.64,0,0,0-.85.29A.62.62,0,0,0,48.52,2.39Z" fill="gray"/><path d="M.64,17a.64.64,0,0,0,.63-.64v-1.7a.63.63,0,0,0-.63-.63.63.63,0,0,0-.64.63v1.7A.64.64,0,0,0,.64,17Z" fill="gray"/><path d="M3.14,5.33a.56.56,0,0,0,.25,0L5,4.62a.64.64,0,0,0,.34-.83.64.64,0,0,0-.84-.34l-1.56.67A.63.63,0,0,0,2.56,5,.62.62,0,0,0,3.14,5.33Z" fill="gray"/><path d="M.64,12.78a.63.63,0,0,0,.63-.63v-1.7a.64.64,0,1,0-1.27,0v1.7A.63.63,0,0,0,.64,12.78Z" fill="gray"/><path d="M1.27,23.16a.62.62,0,0,0-.66-.61.64.64,0,0,0-.61.66,4.64,4.64,0,0,0,.51,1.9.66.66,0,0,0,.57.34.6.6,0,0,0,.29-.08.63.63,0,0,0,.27-.85A3.41,3.41,0,0,1,1.27,23.16Z" fill="gray"/><path d="M.64,21.27a.63.63,0,0,0,.63-.63v-1.7a.64.64,0,1,0-1.27,0v1.7A.63.63,0,0,0,.64,21.27Z" fill="gray"/><path d="M11,2a.69.69,0,0,0,.24,0l1-.43a2.6,2.6,0,0,1,.47-.16A.63.63,0,0,0,12.38.14a3.65,3.65,0,0,0-.66.22l-1,.43A.63.63,0,0,0,11,2Z" fill="gray"/><path d="M15.07,1.27h1.7A.63.63,0,0,0,17.4.64.63.63,0,0,0,16.77,0h-1.7a.63.63,0,0,0-.63.64A.63.63,0,0,0,15.07,1.27Z" fill="gray"/><path d="M19.32,1.27H21a.63.63,0,0,0,.63-.63A.63.63,0,0,0,21,0h-1.7a.64.64,0,1,0,0,1.27Z" fill="gray"/><path d="M7.05,3.67a.59.59,0,0,0,.25,0L8.86,3a.64.64,0,0,0,.33-.84.63.63,0,0,0-.83-.33L6.8,2.45a.65.65,0,0,0-.34.84A.64.64,0,0,0,7.05,3.67Z" fill="gray"/></g></g></svg>
