<svg id="b5af03f1-482f-420b-96b5-5c273c5b56c9" data-name="Icon" xmlns="http://www.w3.org/2000/svg" viewBox="0 0 36 36"><defs><style>.ae4d0995-cba6-4887-9da9-9379e2a50d33 {fill: #fff;}</style></defs><g><rect width="100%" height="100%" fill="#689b7a"/><path class="ae4d0995-cba6-4887-9da9-9379e2a50d33" d="M25,8.37a.63.63,0,0,0-.62.63.63.63,0,0,0,1.25,0A.63.63,0,0,0,25,8.37Z"/><path class="ae4d0995-cba6-4887-9da9-9379e2a50d33" d="M27,8.37a.63.63,0,0,0-.62.63.63.63,0,0,0,1.25,0A.63.63,0,0,0,27,8.37Z"/><path class="ae4d0995-cba6-4887-9da9-9379e2a50d33" d="M31,4.38H5A.61.61,0,0,0,4.38,5V31a.61.61,0,0,0,.62.62H31a.61.61,0,0,0,.62-.62V5A.61.61,0,0,0,31,4.38Zm-.62,26H5.62V5.62H30.38Z"/></g></svg>