<svg id="a8a5e8ef-b74d-4d5f-9405-ca91fc8ad128" data-name="Icon" xmlns="http://www.w3.org/2000/svg" viewBox="0 0 36 36"><defs><style>.b71134d5-c736-47dc-b6f1-a3f3780dd16a {fill: #fff;}</style></defs><path class="b71134d5-c736-47dc-b6f1-a3f3780dd16a" d="M27,18.62a.62.62,0,1,0-.62-.62A.61.61,0,0,0,27,18.62Z"/><g><rect width="100%" height="100%" fill="#43adaf"/><path class="b71134d5-c736-47dc-b6f1-a3f3780dd16a" d="M31,12.38H5a.61.61,0,0,0-.62.62V23a.61.61,0,0,0,.62.62H31a.61.61,0,0,0,.62-.62V13A.61.61,0,0,0,31,12.38Zm-.62,10H5.62V13.62H30.38Z"/><path class="b71134d5-c736-47dc-b6f1-a3f3780dd16a" d="M9,18.62h6a.62.62,0,0,0,0-1.24H9a.62.62,0,0,0,0,1.24Z"/></g></svg>