<svg id="b05f6bfa-549f-4e3c-abcc-5d2290dd43bc" data-name="Icon" xmlns="http://www.w3.org/2000/svg" viewBox="0 0 36 36"><defs><style>.e8eacf34-d778-48d9-926e-f3102cabccdb {fill: #fff;}</style></defs><g><rect width="100%" height="100%" fill="#1d4174"/><path class="e8eacf34-d778-48d9-926e-f3102cabccdb" d="M11.62,11V5A.62.62,0,0,0,11,4.38H5A.62.62,0,0,0,4.38,5v6a.62.62,0,0,0,.62.62h6A.62.62,0,0,0,11.62,11Zm-1.24-.62H5.62V5.62h4.76Z"/><path class="e8eacf34-d778-48d9-926e-f3102cabccdb" d="M31,26.38a.62.62,0,0,0-.62.62v3.38H19.62V19.62H27a.62.62,0,0,0,0-1.24H19a.62.62,0,0,0-.62.62V31a.62.62,0,0,0,.62.62H31a.62.62,0,0,0,.62-.62V27A.62.62,0,0,0,31,26.38Z"/><path class="e8eacf34-d778-48d9-926e-f3102cabccdb" d="M23.44,24.56c-.56-.58-1.47.32-.88.88l2,2a.61.61,0,0,0,.88,0l6-6c.58-.56-.31-1.47-.88-.88L25,26.12Z"/><path class="e8eacf34-d778-48d9-926e-f3102cabccdb" d="M16.51,15.62H22a4.13,4.13,0,0,0,0-8.25H14a.62.62,0,0,0,0,1.24h8a2.88,2.88,0,0,1,0,5.75H16.51l.93-.94c.58-.56-.32-1.47-.88-.88l-2,2a.64.64,0,0,0,0,.88l2,2a.62.62,0,0,0,.88-.88Z"/><path class="e8eacf34-d778-48d9-926e-f3102cabccdb" d="M16.61,22.92c.1-.27-1.84-2-2.17-2.36-.56-.58-1.46.32-.88.88l.93.94H10a3.38,3.38,0,0,1,0-6.75h2a.62.62,0,0,0,0-1.24H10c-6.11.19-6.11,9,0,9.25h4.49l-.93.94a.62.62,0,0,0,.88.88l2-2A.6.6,0,0,0,16.61,22.92Z"/></g></svg>