<svg id="a5082d04-d750-43d2-9d5c-dc69e2f8a50e" data-name="Icon" xmlns="http://www.w3.org/2000/svg" viewBox="0 0 36 36"><defs><style>.ec2568bb-3c47-4614-b8eb-61370c604ec2 {fill: #fff;}</style></defs><g><rect width="100%" height="100%" fill="#689b7a"/><path class="ec2568bb-3c47-4614-b8eb-61370c604ec2" d="M18,15.37a.62.62,0,0,0-.61.63.61.61,0,0,0,.61.62.62.62,0,0,0,.63-.62A.63.63,0,0,0,18,15.37Z"/><path class="ec2568bb-3c47-4614-b8eb-61370c604ec2" d="M20,15.37a.62.62,0,0,0-.61.63.61.61,0,0,0,.61.62.62.62,0,0,0,.63-.62A.63.63,0,0,0,20,15.37Z"/><g><path class="ec2568bb-3c47-4614-b8eb-61370c604ec2" d="M30.44,10.46l-12.13-7a.62.62,0,0,0-.62,0l-12.13,7a.63.63,0,0,0-.31.54V25a.63.63,0,0,0,.31.54l12.13,7a.64.64,0,0,0,.62,0l12.13-7a.63.63,0,0,0,.31-.54V11A.63.63,0,0,0,30.44,10.46ZM29.5,24.64,18,31.28,6.5,24.64V11.36L18,4.72l11.5,6.64Z"/><path class="ec2568bb-3c47-4614-b8eb-61370c604ec2" d="M12.38,13V23a.62.62,0,0,0,.62.62H23a.62.62,0,0,0,.62-.62V13a.62.62,0,0,0-.62-.62H13A.62.62,0,0,0,12.38,13Zm1.24.62h8.76v8.76H13.62Z"/></g></g></svg>