<svg id="fdced2b7-0166-4381-b916-3053dd2aeebc" data-name="Icon" xmlns="http://www.w3.org/2000/svg" viewBox="0 0 36 36">
  <defs>
    <style>
      .bd52a396-98dc-45bb-babc-0dad9f9ca28d {
        fill: #fff;
      }
    </style>
  </defs>
  <g>
    <path class="bd52a396-98dc-45bb-babc-0dad9f9ca28d" d="M28.62,17.52v0a9.12,9.12,0,0,0-17.28-4.07,7.12,7.12,0,1,0-.84,14.19H28a.75.75,0,0,0,.26-.05,5.11,5.11,0,0,0,.36-10ZM27.5,26.38h-17a5.88,5.88,0,1,1,1.09-11.65.64.64,0,0,0,.69-.36,7.87,7.87,0,0,1,15.1,3.13c0,.13,0,.26,0,.39V18a.63.63,0,0,0,.56.66,3.87,3.87,0,0,1-.41,7.71Z"/>
    <path class="bd52a396-98dc-45bb-babc-0dad9f9ca28d" d="M21.62,16.71a2.34,2.34,0,1,0-3.61,2L17,22.85a.63.63,0,0,0,.12.53.6.6,0,0,0,.49.24H21a.6.6,0,0,0,.49-.24.63.63,0,0,0,.12-.53l-1.05-4.18A2.34,2.34,0,0,0,21.62,16.71Z"/>
  </g>
</svg>
