<svg id="e51ee847-8a89-4d57-9762-c4c423d8e613" data-name="Icon" xmlns="http://www.w3.org/2000/svg" viewBox="0 0 36 36">
  <defs>
    <style>
      .bedca689-f607-42d7-a2eb-9cae605c1583 {
        fill: #fff;
      }
    </style>
  </defs>
  <g>
    <path class="bedca689-f607-42d7-a2eb-9cae605c1583" d="M14.5,4.38A10.12,10.12,0,1,0,24.62,14.5,10.13,10.13,0,0,0,14.5,4.38Zm0,19a8.88,8.88,0,1,1,8.88-8.88A8.9,8.9,0,0,1,14.5,23.38Z"/>
    <path class="bedca689-f607-42d7-a2eb-9cae605c1583" d="M31.44,30.56l-6-6c-.56-.58-1.46.32-.88.88l6,6A.62.62,0,0,0,31.44,30.56Z"/>
    <path class="bedca689-f607-42d7-a2eb-9cae605c1583" d="M14.5,7.38A7.12,7.12,0,0,0,7.38,14.5a.62.62,0,1,0,1.24,0A5.89,5.89,0,0,1,14.5,8.62a.62.62,0,0,0,0-1.24Z"/>
    <path class="bedca689-f607-42d7-a2eb-9cae605c1583" d="M23,22.38a.63.63,0,1,0,.62.62A.62.62,0,0,0,23,22.38Z"/>
  </g>
</svg>
