<svg id="a0284e64-97a8-4d1d-ba43-d8f9d219c7a0" data-name="Icon" xmlns="http://www.w3.org/2000/svg" viewBox="0 0 36 36">
  <defs>
    <style>
      .b681b792-bd91-449c-9bde-457932a9d6ca {
        fill: #fff;
      }
    </style>
  </defs>
  <path class="b681b792-bd91-449c-9bde-457932a9d6ca" d="M28.62,17.52v0a9.12,9.12,0,0,0-17.28-4.07,7.12,7.12,0,1,0-.84,14.19H28a.75.75,0,0,0,.26-.05,5.11,5.11,0,0,0,.36-10ZM27.5,26.38h-17a5.88,5.88,0,1,1,1.09-11.65.64.64,0,0,0,.69-.36,7.87,7.87,0,0,1,15.1,3.13c0,.13,0,.26,0,.4V18a.63.63,0,0,0,.56.66,3.87,3.87,0,0,1-.41,7.71Z"/>
</svg>
