<svg id="b4b37b10-c466-4a0d-87d2-63e338e440eb" data-name="Icon" xmlns="http://www.w3.org/2000/svg" viewBox="0 0 36 36">
  <defs>
    <style>
      .e9db4834-0dd2-403d-800f-038f2c8a2456 {
        fill: #fff;
      }
    </style>
  </defs>
  <path class="e9db4834-0dd2-403d-800f-038f2c8a2456" d="M30.44,10.46l-12.13-7a.62.62,0,0,0-.62,0l-12.13,7a.63.63,0,0,0-.31.54V25a.63.63,0,0,0,.31.54l12.13,7a.64.64,0,0,0,.62,0l12.13-7a.63.63,0,0,0,.31-.54V11A.63.63,0,0,0,30.44,10.46ZM29.5,24.64,18,31.28,6.5,24.64V11.36L18,4.72l11.5,6.64Z"/>
</svg>
