<svg id="e067a7e2-2c7f-4e89-b06d-dfc3e41ca338" data-name="Icon" xmlns="http://www.w3.org/2000/svg" viewBox="0 0 36 36">
  <defs>
    <style>
      .fa2e5ac6-f043-49f0-9d4c-ce6d1d939030 {
        fill: #fff;
      }
    </style>
  </defs>
  <g>
    <path class="fa2e5ac6-f043-49f0-9d4c-ce6d1d939030" d="M27,23.37a.63.63,0,0,0-.62.63.63.63,0,0,0,1.25,0A.63.63,0,0,0,27,23.37Z"/>
    <path class="fa2e5ac6-f043-49f0-9d4c-ce6d1d939030" d="M18,9.38a.63.63,0,0,0-.62.63.63.63,0,0,0,1.25,0A.63.63,0,0,0,18,9.38Z"/>
    <path class="fa2e5ac6-f043-49f0-9d4c-ce6d1d939030" d="M20,9.38a.63.63,0,0,0-.62.63.63.63,0,0,0,1.25,0A.63.63,0,0,0,20,9.38Z"/>
    <g>
      <path class="fa2e5ac6-f043-49f0-9d4c-ce6d1d939030" d="M31,18.38H5a.62.62,0,0,0-.62.62V29a.62.62,0,0,0,.62.62H31a.62.62,0,0,0,.62-.62V19A.62.62,0,0,0,31,18.38Zm-.62,10H5.62V19.62H30.38Z"/>
      <path class="fa2e5ac6-f043-49f0-9d4c-ce6d1d939030" d="M9,24.62h6a.62.62,0,0,0,0-1.24H9a.62.62,0,0,0,0,1.24Z"/>
      <path class="fa2e5ac6-f043-49f0-9d4c-ce6d1d939030" d="M13,17.62H23a.62.62,0,0,0,.62-.62V7A.62.62,0,0,0,23,6.38H13a.62.62,0,0,0-.62.62V17A.62.62,0,0,0,13,17.62Zm.62-10h8.76v8.76H13.62Z"/>
    </g>
  </g>
</svg>
