<svg id="f702accb-09d5-47c7-96eb-83c1e3d58b63" data-name="Icon" xmlns="http://www.w3.org/2000/svg" viewBox="0 0 36 36">
  <defs>
    <style>
      .bd23e98a-2f10-4003-a399-2b27c35c1cdd {
        fill: #fff;
      }
    </style>
  </defs>
  <g>
    <path class="bd23e98a-2f10-4003-a399-2b27c35c1cdd" d="M16.625,12.5A4.125,4.125,0,1,0,12.5,16.625,4.13,4.13,0,0,0,16.625,12.5ZM12.5,15.375A2.875,2.875,0,1,1,15.375,12.5,2.879,2.879,0,0,1,12.5,15.375Z"/>
    <path class="bd23e98a-2f10-4003-a399-2b27c35c1cdd" d="M17.5,19.375A4.125,4.125,0,1,0,21.625,23.5,4.13,4.13,0,0,0,17.5,19.375Zm0,7A2.875,2.875,0,1,1,20.375,23.5,2.879,2.879,0,0,1,17.5,26.375Z"/>
    <path class="bd23e98a-2f10-4003-a399-2b27c35c1cdd" d="M31.625,12.5A4.125,4.125,0,1,0,27.5,16.625,4.13,4.13,0,0,0,31.625,12.5ZM27.5,15.375A2.875,2.875,0,1,1,30.375,12.5,2.879,2.879,0,0,1,27.5,15.375Z"/>
    <path class="bd23e98a-2f10-4003-a399-2b27c35c1cdd" d="M5,8.375A.625.625,0,0,0,4.375,9v7a.625.625,0,0,0,1.25,0V9A.625.625,0,0,0,5,8.375Z"/>
    <path class="bd23e98a-2f10-4003-a399-2b27c35c1cdd" d="M5,19.375A.625.625,0,0,0,4.375,20v7a.625.625,0,0,0,1.25,0V20A.625.625,0,0,0,5,19.375Z"/>
    <path class="bd23e98a-2f10-4003-a399-2b27c35c1cdd" d="M10,19.375A.625.625,0,0,0,9.375,20v7a.625.625,0,0,0,1.25,0V20A.625.625,0,0,0,10,19.375Z"/>
    <path class="bd23e98a-2f10-4003-a399-2b27c35c1cdd" d="M25,19.375a.625.625,0,0,0-.625.625v7a.625.625,0,0,0,1.25,0V20A.625.625,0,0,0,25,19.375Z"/>
    <path class="bd23e98a-2f10-4003-a399-2b27c35c1cdd" d="M30,19.375a.625.625,0,0,0-.625.625v7a.625.625,0,0,0,1.25,0V20A.625.625,0,0,0,30,19.375Z"/>
    <path class="bd23e98a-2f10-4003-a399-2b27c35c1cdd" d="M20,16.625A.625.625,0,0,0,20.625,16V9a.625.625,0,0,0-1.25,0v7A.625.625,0,0,0,20,16.625Z"/>
  </g>
</svg>
