<svg id="b1a9d9be-6e76-49c6-bb23-a53a10f89854" data-name="Icon" xmlns="http://www.w3.org/2000/svg" viewBox="0 0 36 36">
  <defs>
    <style>
      .bf8e3be1-4d6a-478f-a14f-3f58f485604a {
        fill: #fff;
      }
    </style>
  </defs>
  <path class="bf8e3be1-4d6a-478f-a14f-3f58f485604a" d="M18,8.63A.62.62,0,1,0,17.38,8,.61.61,0,0,0,18,8.63Z"/>
  <g>
    <path class="bf8e3be1-4d6a-478f-a14f-3f58f485604a" d="M25,4.38H11a.62.62,0,0,0-.62.62V31a.62.62,0,0,0,.62.62H25a.62.62,0,0,0,.62-.62V5A.62.62,0,0,0,25,4.38Zm-.62,26H11.62V5.62H24.38Z"/>
    <path class="bf8e3be1-4d6a-478f-a14f-3f58f485604a" d="M16,28.62h4a.62.62,0,0,0,0-1.24H16a.62.62,0,1,0,0,1.24Z"/>
  </g>
</svg>
