<svg id="efbea552-4903-45e5-b4b3-f08f5aaf03cb" data-name="Icon" xmlns="http://www.w3.org/2000/svg" viewBox="0 0 36 36"><defs><style>.e3fd63e0-c2f1-4c59-b699-b58fde5e8472 {fill: #fff;}</style></defs><path class="e3fd63e0-c2f1-4c59-b699-b58fde5e8472" d="M26,17.62a.62.62,0,1,0-.62-.62A.61.61,0,0,0,26,17.62Z"/><path class="e3fd63e0-c2f1-4c59-b699-b58fde5e8472" d="M13.47,9.62A.62.62,0,1,0,12.85,9,.61.61,0,0,0,13.47,9.62Z"/><g><rect width="100%" height="100%" fill="#43adaf"/><path class="e3fd63e0-c2f1-4c59-b699-b58fde5e8472" d="M18,27.38H5.1V5.62H21.38V11a.62.62,0,1,0,1.24,0V5A.62.62,0,0,0,22,4.38H4.48A.62.62,0,0,0,3.85,5V28a.62.62,0,0,0,.63.62H18a.62.62,0,0,0,0-1.24Z"/><path class="e3fd63e0-c2f1-4c59-b699-b58fde5e8472" d="M10.85,24a.62.62,0,0,0,.63.62h4a.62.62,0,0,0,0-1.24h-4A.62.62,0,0,0,10.85,24Z"/><path class="e3fd63e0-c2f1-4c59-b699-b58fde5e8472" d="M31,13.38H21a.62.62,0,0,0-.62.62V31a.62.62,0,0,0,.62.62H31a.62.62,0,0,0,.62-.62V14A.62.62,0,0,0,31,13.38Zm-.62,17H21.62V14.62h8.76Z"/><path class="e3fd63e0-c2f1-4c59-b699-b58fde5e8472" d="M25,28.62h2a.62.62,0,0,0,0-1.24H25a.62.62,0,0,0,0,1.24Z"/></g></svg>